<?xml version="1.0" encoding="UTF-8"?>
<!DOCTYPE svg PUBLIC "-//W3C//DTD SVG 1.1//EN" "http://www.w3.org/Graphics/SVG/1.1/DTD/svg11.dtd">
<svg width="1437px" height="5570px" version="1.1" xmlns="http://www.w3.org/2000/svg">
<title>Liberation Circuit</title>
<desc>Cores and components as vector graphics.</desc>

<!-- CORE_QUAD_A -->
<g transform="translate(60,120)">
	<path d="M -55,-55 L 55,-55 L 55,55 L -55,55 L -55,-55 z" stroke="#4e9a06" stroke-width="2" fill="none" />
	<polyline points="38, 0, 0, 23, -48, 0, 0, -23" fill="#808080" />
	<polyline points="8, -1, 1, -8, 1, -12, 16, -21, 32, -12, 21, -1" />
	<polyline points="8, 1, 1, 8, 1, 12, 16, 21, 31, 12, 21, 1" />
	<polyline points="-8, 1, -1, 8, -1, 12, -18, 21, -29, 20, -35, 16, -41, 12, -31, 1" />
	<polyline points="-8, -1, -1, -8, -1, -12, -18, -21, -29, -20, -35, -16, -41, -12, -31, -1" />
	<polyline points="0, 6, -6, 0, 0, -6, 6, 0" />
</g>

<!-- CORE_QUAD_B -->
<g transform="translate(180,120)">
	<path d="M -55,-55 L 55,-55 L 55,55 L -55,55 L -55,-55 z" stroke="#4e9a06" stroke-width="2" fill="none" />
	<polyline points="27, 0, 22, 18, -18, 21, -37, 5, -37, -5, -18, -21, 22, -18" fill="#808080" />
	<polyline points="31, -4, 31, 3, 18, 11, 11, 5, 11, -6, 18, -11" />
	<polyline points="-6, -26, -9, -16, -1, -7, 9, -7, 16, -12, 5, -26" />
	<polyline points="-6, 26, -9, 16, -1, 7, 9, 7, 16, 12, 5, 26" />
	<polyline points="-47, 7, -47, -7, -34, -12, -11, -14, -3, -5, -3, 5, -11, 14, -34, 12" />
	<polyline points="9, -5, 9, 5, -1, 5, -1, -5" />
</g>

<!-- CORE_PENT_A -->
<g transform="translate(300,120)">
	<path d="M -55,-55 L 55,-55 L 55,55 L -55,55 L -55,-55 z" stroke="#4e9a06" stroke-width="2" fill="none" />
	<polyline points="34, 0, 5, 25, -23, 23, -44, -1, -23, -23, 5, -25" fill="#808080" />
	<polyline points="8, -1, 1, -8, 4, -19, 22, -14, 30, -9, 24, -1" />
	<polyline points="8, 1, 1, 8, 4, 19, 22, 14, 30, 9, 24, 1" />
	<polyline points="0, -9, 2, -19, -8, -28, -14, -28, -19, -16, -8, -4" />
	<polyline points="0, 9, 2, 19, -8, 28, -14, 28, -19, 16, -8, 4" />
	<polyline points="-9, 3, -21, 15, -50, 5, -50, -5, -21, -15, -9, -3" />
	<polyline points="0, 7, -7, 3, -7, -3, 0, -7, 7, 0" />
</g>

<!-- CORE_PENT_B -->
<g transform="translate(420,120)">
	<path d="M -55,-55 L 55,-55 L 55,55 L -55,55 L -55,-55 z" stroke="#4e9a06" stroke-width="2" fill="none" />
	<polyline points="33, 0, 6, 29, -26, 22, -34, 7, -34, -7, -26, -22, 6, -29" fill="#808080" />
	<polyline points="7, -1, -1, -7, 5, -19, 31, -18, 33, -10, 26, -1" />
	<polyline points="7, 1, -1, 7, 5, 19, 31, 18, 33, 10, 26, 1" />
	<polyline points="-2, -8, 2, -19, -4, -32, -13, -27, -16, -17, -8, -4" />
	<polyline points="-2, 8, 2, 19, -4, 32, -13, 27, -16, 17, -8, 4" />
	<polyline points="-9, 3, -18, 16, -40, 11, -48, 0, -40, -11, -18, -16, -9, -3" />
	<polyline points="-2, 6, -7, 3, -7, -3, -2, -6, 6, 0" />
</g>

<!-- CORE_PENT_C -->
<g transform="translate(540,120)">
	<path d="M -55,-55 L 55,-55 L 55,55 L -55,55 L -55,-55 z" stroke="#4e9a06" stroke-width="2" fill="none" />
	<polyline points="44, 0, -2, 25, -27, 14, -35, 0, -27, -14, -2, -25" fill="#808080" />
	<polyline points="8, -1, 1, -7, 1, -18, 10, -28, 42, -10, 32, -1" />
	<polyline points="8, 1, 1, 7, 1, 18, 10, 28, 42, 10, 32, 1" />
	<polyline points="-1, -7, -1, -18, -19, -27, -23, -24, -21, -10, -7, -4" />
	<polyline points="-1, 7, -1, 18, -19, 27, -23, 24, -21, 10, -7, 4" />
	<polyline points="-8, 3, -21, 9, -42, 3, -42, -3, -21, -9, -8, -3" />
	<polyline points="0, 6, -6, 3, -6, -3, 0, -6, 6, 0" />
</g>

<!-- CORE_HEX_A -->
<g transform="translate(660,120)">
	<path d="M -55,-55 L 55,-55 L 55,55 L -55,55 L -55,-55 z" stroke="#4e9a06" stroke-width="2" fill="none" />
	<polyline points="48, 0, 16, 24, -20, 23, -51, 0, -20, -23, 16, -24" fill="#808080" />
	<polyline points="9, 0, 5, 5, -7, 5, -10, 0, -7, -5, 5, -5" />
	<polyline points="-14, -17, -38, -24, -52, -14, -37, -1, -12, -1, -8, -7" />
	<polyline points="-14, 17, -38, 24, -52, 14, -37, 1, -12, 1, -8, 7" />
	<polyline points="-6, -7, 4, -7, 12, -17, 3, -29, -5, -29, -12, -17" />
	<polyline points="-6, 7, 4, 7, 12, 17, 3, 29, -5, 29, -12, 17" />
	<polyline points="6, -7, 11, -1, 33, -1, 46, -11, 29, -21, 13, -16" />
	<polyline points="6, 7, 11, 1, 33, 1, 46, 11, 29, 21, 13, 16" />
</g>

<!-- CORE_HEX_B -->
<g transform="translate(780,120)">
	<path d="M -55,-55 L 55,-55 L 55,55 L -55,55 L -55,-55 z" stroke="#4e9a06" stroke-width="2" fill="none" />
	<polyline points="48, 0, 16, 25, -20, 25, -51, 0, -20, -25, 16, -25" fill="#808080" />
	<polyline points="8, 0, 3, 5, -4, 5, -9, 0, -4, -5, 3, -5" />
	<polyline points="-3, -7, 3, -7, 11, -19, 3, -29, -3, -29, -11, -19" />
	<polyline points="-3, 7, 3, 7, 11, 19, 3, 29, -3, 29, -11, 19" />
	<polyline points="5, -6, 10, -1, 33, -1, 46, -11, 29, -21, 13, -19" />
	<polyline points="5, 6, 10, 1, 33, 1, 46, 11, 29, 21, 13, 19" />
	<polyline points="-15, -4, -11, 0, -15, 4, -18, 4, -22, 0, -18, -4" />
	<polyline points="-13, -19, -5, -7, -10, -2, -15, -6, -18, -6, -24, -1, -37, -1, -48, -12, -33, -23" />
	<polyline points="-13, 19, -5, 7, -10, 2, -15, 6, -18, 6, -24, 1, -37, 1, -48, 12, -33, 23" />
</g>

<!-- CORE_HEX_C -->
<g transform="translate(900,120)">
	<path d="M -55,-55 L 55,-55 L 55,55 L -55,55 L -55,-55 z" stroke="#4e9a06" stroke-width="2" fill="none" />
	<polyline points="53, 0, 17, 28, -17, 28, -51, 0, -17, -28, 17, -28" fill="#808080" />
	<polyline points="9, 0, 4, 5, -4, 5, -9, 0, -4, -5, 4, -5" />
	<polyline points="-3, -7, 3, -7, 15, -20, 4, -35, -4, -35, -13, -20" />
	<polyline points="-3, 7, 3, 7, 15, 20, 4, 35, -4, 35, -13, 20" />
	<polyline points="-15, -4, -11, 0, -15, 4, -18, 4, -22, 0, -18, -4" />
	<polyline points="-15, -20, -5, -7, -10, -2, -15, -6, -18, -6, -24, -1, -37, -1, -51, -15, -38, -26" />
	<polyline points="-15, 20, -5, 7, -10, 2, -15, 6, -18, 6, -24, 1, -37, 1, -51, 15, -38, 26" />
	<polyline points="17, -20, 5, -7, 10, -2, 15, -6, 18, -6, 24, -1, 40, -1, 51, -15, 33, -22" />
	<polyline points="17, 20, 5, 7, 10, 2, 15, 6, 18, 6, 24, 1, 40, 1, 51, 15, 33, 22" />
	<polyline points="15, -4, 11, 0, 15, 4, 18, 4, 22, 0, 18, -4" />
</g>

<!-- COMPONENT_LONG6 -->
<g transform="translate(60,240)">
	<path d="M -55,-55 L 55,-55 L 55,55 L -55,55 L -55,-55 z" stroke="#4e9a06" stroke-width="2" fill="none" />
	<polyline points="43, 0, 14, 22, -14, 22, -43, -0, -14, -22, 14, -22" fill="#808080" />
	<polyline points="-3, -27, 3, -27, 20, 0, 3, 27, -3, 27, -20, 0" />
	<polyline points="-13, -14, -24, -19, -40, -10, -32, -1, -22, -1" />
	<polyline points="-13, 14, -24, 19, -40, 10, -32, 1, -22, 1" />
	<polyline points="13, -14, 24, -19, 40, -10, 32, -1, 22, -1" />
	<polyline points="13, 14, 24, 19, 40, 10, 32, 1, 22, 1" />
</g>

<!-- COMPONENT_DROP -->
<g transform="translate(180,240)">
	<path d="M -55,-55 L 55,-55 L 55,55 L -55,55 L -55,-55 z" stroke="#4e9a06" stroke-width="2" fill="none" />
	<polyline points="44, 0, 18, 20, -17, 25, -43, 0, -17, -25, 18, -20" fill="#808080" />
	<polyline points="-26, 0, -4, -26, 5, -24, 15, 0, 5, 24, -4, 26" />
	<polyline points="-15, -16, -26, -23, -40, -10, -33, -1, -28, -1" />
	<polyline points="-15, 16, -26, 23, -40, 10, -33, 1, -28, 1" />
	<polyline points="27, -17, 40, -10, 32, -1, 17, -1, 12, -12" />
	<polyline points="27, 17, 40, 10, 32, 1, 17, 1, 12, 12" />
</g>

<!-- COMPONENT_SIDE -->
<g transform="translate(300,240)">
	<path d="M -55,-55 L 55,-55 L 55,55 L -55,55 L -55,-55 z" stroke="#4e9a06" stroke-width="2" fill="none" />
	<polyline points="37, 0, 25, 19, 12, 20, 0, 26, -12, 20, -25, 19, -37, 0, -25, -19, -12, -20, 0, -26, 12, -20, 25, -19" fill="#808080" />
	<polyline points="-1, -17, -11, -25, -16, -24, -18, -13, -7, -3, -1, -7" />
	<polyline points="-1, 17, -11, 25, -16, 24, -18, 13, -7, 3, -1, 7" />
	<polyline points="1, -17, 11, -25, 16, -24, 18, -13, 7, -3, 1, -7" />
	<polyline points="1, 17, 11, 25, 16, 24, 18, 13, 7, 3, 1, 7" />
	<polyline points="0, -6, -6, -2, -6, 2, 0, 6, 6, 2, 6, -2" />
	<polyline points="20, -12, 43, -5, 43, 4, 20, 12, 8, 2, 8, -2" />
	<polyline points="-20, -12, -43, -5, -43, 4, -20, 12, -8, 2, -8, -2" />
</g>

<!-- COMPONENT_LONG4 -->
<g transform="translate(420,240)">
	<path d="M -55,-55 L 55,-55 L 55,55 L -55,55 L -55,-55 z" stroke="#4e9a06" stroke-width="2" fill="none" />
	<polyline points="50, 0, 0, -23, -37, 0, 0, 23" fill="#808080" />
	<polyline points="1, 13, 1, 9, 24, 1, 34, 1, 42, 10, 10, 21" />
	<polyline points="1, -13, 1, -9, 24, -1, 34, -1, 42, -10, 10, -21" />
	<polyline points="-1, -13, -1, -9, -12, -1, -23, -1, -27, -11, -10, -21" />
	<polyline points="-1, 13, -1, 9, -12, 1, -23, 1, -27, 11, -10, 21" />
	<polyline points="0, -7, -10, 0, 0, 7, 21, 0" />
</g>

<!-- COMPONENT_BOX -->
<g transform="translate(540,240)">
	<path d="M -55,-55 L 55,-55 L 55,55 L -55,55 L -55,-55 z" stroke="#4e9a06" stroke-width="2" fill="none" />
	<polyline points="31, 0, 0, -31, -31, 0, 0, 31" fill="#808080" />
	<polyline points="1, 14, 14, 1, 20, 1, 28, 16, 16, 28, 1, 20" />
	<polyline points="1, -14, 14, -1, 20, -1, 28, -16, 16, -28, 1, -20" />
	<polyline points="-1, -14, -14, -1, -20, -1, -28, -16, -16, -28, -1, -20" />
	<polyline points="-1, 14, -14, 1, -20, 1, -28, 16, -16, 28, -1, 20" />
	<polyline points="0, -12, -12, 0, 0, 12, 12, 0" />
</g>

<!-- COMPONENT_LONG5 -->
<g transform="translate(660,240)">
	<path d="M -55,-55 L 55,-55 L 55,55 L -55,55 L -55,-55 z" stroke="#4e9a06" stroke-width="2" fill="none" />
	<polyline points="46, 0, -10, 25, -35, 9, -35, -9, -10, -25" fill="#808080" />
	<polyline points="-13, -10, -2, 0, -13, 10, -42, 3, -42, -3" />
	<polyline points="-9, -16, -20, -22, -29, -17, -26, -9, -13, -12" />
	<polyline points="-9, 16, -20, 22, -29, 17, -26, 9, -13, 12" />
	<polyline points="-11, -11, -7, -16, 6, -21, 40, -10, 32, -1, 0, -1" />
	<polyline points="-11, 11, -7, 16, 6, 21, 40, 10, 32, 1, 0, 1" />
</g>

<!-- COMPONENT_SNUB -->
<g transform="translate(780,240)">
	<path d="M -55,-55 L 55,-55 L 55,55 L -55,55 L -55,-55 z" stroke="#4e9a06" stroke-width="2" fill="none" />
	<polyline points="39, 0, 6, 27, -36, 16, -42, 0, -36, -16, 6, -27" fill="#808080" />
	<polyline points="-25, -9, -2, -3, 1, 0, -2, 3, -25, 9, -44, 6, -44, -6" />
	<polyline points="-3, -28, -24, -21, -26, -11, -2, -5, 5, -16" />
	<polyline points="-3, 28, -24, 21, -26, 11, -2, 5, 5, 16" />
	<polyline points="6, -15, 18, -21, 34, -10, 24, -1, 2, -1, -1, -4" />
	<polyline points="6, 15, 18, 21, 34, 10, 24, 1, 2, 1, -1, 4" />
</g>

<!-- COMPONENT_CAP -->
<g transform="translate(900,240)">
	<path d="M -55,-55 L 55,-55 L 55,55 L -55,55 L -55,-55 z" stroke="#4e9a06" stroke-width="2" fill="none" />
	<polyline points="3, -36, 7, -16, 8, 0, 7, 16, 2, 36, -9, 40, -27, 13, -16, 0, -27, -13, -9, -40" fill="#808080" />
	<polyline points="-10, -12, 12, -3, 12, 3, -10, 12, -32, 4, -32, -4" />
	<polyline points="12, -6, 7, -38, 0, -49, -9, -14" />
	<polyline points="-11, -14, -18, -11, -24, -26, -7, -27" />
	<polyline points="12, 6, 7, 38, 0, 49, -9, 14" />
	<polyline points="-11, 14, -18, 11, -24, 26, -7, 27" />
</g>

<!-- COMPONENT_TRI -->
<g transform="translate(60,360)">
	<path d="M -55,-55 L 55,-55 L 55,55 L -55,55 L -55,-55 z" stroke="#4e9a06" stroke-width="2" fill="none" />
	<polyline points="41, 0, -3, 21, -27, 0, -3, -21" fill="#808080" />
	<polyline points="3, 0, -4, 11, -15, 20, -28, 0, -15, -20, -4, -11" />
	<polyline points="4, -1, -2, -11, 6, -20, 35, -8, 28, -1" />
	<polyline points="4, 1, -2, 11, 6, 20, 35, 8, 28, 1" />
</g>

<!-- COMPONENT_PRONG -->
<g transform="translate(180,360)">
	<path d="M -55,-55 L 55,-55 L 55,55 L -55,55 L -55,-55 z" stroke="#4e9a06" stroke-width="2" fill="none" />
	<polyline points="33, 0, 24, 17, -2, 21, -32, 0, -2, -21, 24, -17" fill="#808080" />
	<polyline points="7, 0, -2, 9, -13, 17, -53, 5, -53, -5, -13, -17, -1, -9" />
	<polyline points="8, -1, 13, -1, 19, -9, 13, -25, 8, -25, 1, -9" />
	<polyline points="8, 1, 13, 1, 19, 9, 13, 25, 8, 25, 1, 9" />
	<polyline points="14, 0, 21, -9, 43, -3, 43, 3, 21, 9" />
</g>

<!-- COMPONENT_FORK -->
<g transform="translate(300,360)">
	<path d="M -55,-55 L 55,-55 L 55,55 L -55,55 L -55,-55 z" stroke="#4e9a06" stroke-width="2" fill="none" />
	<polyline points="16, 0, -1, 29, -18, 21, -18, -21, -1, -29" fill="#808080" />
	<polyline points="-4, -1, -12, -13, -7, -41, 1, -41, 15, -10, 6, -1" />
	<polyline points="-4, 1, -12, 13, -7, 41, 1, 41, 15, 10, 6, 1" />
	<polyline points="-5, 0, -13, -12, -38, -4, -38, 4, -13, 12" />
</g>

<!-- COMPONENT_BOWL -->
<g transform="translate(420,360)">
	<path d="M -55,-55 L 55,-55 L 55,55 L -55,55 L -55,-55 z" stroke="#4e9a06" stroke-width="2" fill="none" />
	<polyline points="15, 0, 16, 12, -3, 47, -18, 36, -18, 22, -36, 0, -18, -22, -18, -36, -3, -47, 16, -12" fill="#808080" />
	<polyline points="-10, -12, 17, -4, 17, 4, -10, 12, -25, 0" />
	<polyline points="7, -9, 13, -23, 0, -49, -13, -54, -9, -14" />
	<polyline points="7, 9, 13, 23, 0, 49, -13, 54, -9, 14" />
	<polyline points="-11, -15, -12, -30, -32, -12, -26, -2" />
	<polyline points="-11, 15, -12, 30, -32, 12, -26, 2" />
</g>

<!-- COMPONENT_PEAK -->
<g transform="translate(540,360)">
	<path d="M -55,-55 L 55,-55 L 55,55 L -55,55 L -55,-55 z" stroke="#4e9a06" stroke-width="2" fill="none" />
	<polyline points="22, 0, 20, 18, -13, 35, -29, 24, -22, 10, -30, 0, -22, -10, -29, -24, -13, -35, 20, -18" fill="#808080" />
	<polyline points="-11, -24, 26, -7, 27, -1, -18, -1, -26, -12" />
	<polyline points="-11, 24, 26, 7, 27, 1, -18, 1, -26, 12" />
	<polyline points="11, -16, 16, -26, 2, -36, -9, -25" />
	<polyline points="11, 16, 16, 26, 2, 36, -9, 25" />
	<polyline points="-13, -25, -43, -33, -38, -16, -26, -14" />
	<polyline points="-13, 25, -43, 33, -38, 16, -26, 14" />
</g>

</svg>
